<mxfile host="app.diagrams.net" modified="2022-04-21T13:59:52.478Z" agent="5.0 (Windows NT 10.0; WOW64) AppleWebKit/537.36 (KHTML, like Gecko) Chrome/96.0.4664.110 Safari/537.36" etag="zSOTK6me2VpaPcC_JmNx" version="17.4.6" type="github" pages="2">
  <diagram id="whiGwx_G1ZcnvOZCsHBd" name="Page-1">
    <mxGraphModel dx="1102" dy="1714" grid="1" gridSize="10" guides="1" tooltips="1" connect="1" arrows="1" fold="1" page="1" pageScale="1" pageWidth="850" pageHeight="1100" math="0" shadow="0">
      <root>
        <mxCell id="0" />
        <mxCell id="1" parent="0" />
        <mxCell id="6-HiE4fvEg4OvYf6mzBh-1" value="open account" style="ellipse;whiteSpace=wrap;html=1;fillColor=#ffe6cc;strokeColor=#d79b00;" parent="1" vertex="1">
          <mxGeometry x="365" y="-1080" width="120" height="70" as="geometry" />
        </mxCell>
        <mxCell id="6-HiE4fvEg4OvYf6mzBh-3" value="Clerk" style="shape=umlActor;verticalLabelPosition=bottom;verticalAlign=top;html=1;outlineConnect=0;fillColor=#f8cecc;strokeColor=#b85450;" parent="1" vertex="1">
          <mxGeometry x="760" y="-1000" width="40" height="70" as="geometry" />
        </mxCell>
        <mxCell id="6-HiE4fvEg4OvYf6mzBh-5" value="" style="endArrow=none;html=1;rounded=0;exitX=0.5;exitY=0.5;exitDx=0;exitDy=0;exitPerimeter=0;" parent="1" source="6-HiE4fvEg4OvYf6mzBh-3" target="6-HiE4fvEg4OvYf6mzBh-1" edge="1">
          <mxGeometry width="50" height="50" relative="1" as="geometry">
            <mxPoint x="700" y="-980" as="sourcePoint" />
            <mxPoint x="600" y="-1050" as="targetPoint" />
            <Array as="points">
              <mxPoint x="720" y="-980" />
            </Array>
          </mxGeometry>
        </mxCell>
        <mxCell id="6-HiE4fvEg4OvYf6mzBh-6" value="withdraw cash" style="ellipse;whiteSpace=wrap;html=1;fillColor=#ffe6cc;strokeColor=#d79b00;" parent="1" vertex="1">
          <mxGeometry x="365" y="-950" width="120" height="70" as="geometry" />
        </mxCell>
        <mxCell id="6-HiE4fvEg4OvYf6mzBh-7" value="clear cheques" style="ellipse;whiteSpace=wrap;html=1;fillColor=#ffe6cc;strokeColor=#d79b00;" parent="1" vertex="1">
          <mxGeometry x="365" y="-830" width="120" height="70" as="geometry" />
        </mxCell>
        <mxCell id="6-HiE4fvEg4OvYf6mzBh-8" value="loan application" style="ellipse;whiteSpace=wrap;html=1;fillColor=#ffe6cc;strokeColor=#d79b00;" parent="1" vertex="1">
          <mxGeometry x="365" y="-700" width="120" height="80" as="geometry" />
        </mxCell>
        <mxCell id="6-HiE4fvEg4OvYf6mzBh-9" value="reports" style="ellipse;whiteSpace=wrap;html=1;fillColor=#ffe6cc;strokeColor=#d79b00;" parent="1" vertex="1">
          <mxGeometry x="365" y="-550" width="120" height="80" as="geometry" />
        </mxCell>
        <mxCell id="6-HiE4fvEg4OvYf6mzBh-10" value="" style="endArrow=none;html=1;rounded=0;entryX=1;entryY=0;entryDx=0;entryDy=0;" parent="1" source="6-HiE4fvEg4OvYf6mzBh-3" target="6-HiE4fvEg4OvYf6mzBh-7" edge="1">
          <mxGeometry width="50" height="50" relative="1" as="geometry">
            <mxPoint x="640" y="-880" as="sourcePoint" />
            <mxPoint x="450" y="-820" as="targetPoint" />
          </mxGeometry>
        </mxCell>
        <mxCell id="6-HiE4fvEg4OvYf6mzBh-11" value="Customer" style="shape=umlActor;verticalLabelPosition=bottom;verticalAlign=top;html=1;outlineConnect=0;fillColor=#f8cecc;strokeColor=#b85450;" parent="1" vertex="1">
          <mxGeometry x="20" y="-900" width="40" height="70" as="geometry" />
        </mxCell>
        <mxCell id="6-HiE4fvEg4OvYf6mzBh-12" value="" style="endArrow=none;html=1;rounded=0;exitX=0.008;exitY=0.614;exitDx=0;exitDy=0;exitPerimeter=0;" parent="1" source="6-HiE4fvEg4OvYf6mzBh-6" target="6-HiE4fvEg4OvYf6mzBh-11" edge="1">
          <mxGeometry width="50" height="50" relative="1" as="geometry">
            <mxPoint x="400" y="-770" as="sourcePoint" />
            <mxPoint x="450" y="-820" as="targetPoint" />
          </mxGeometry>
        </mxCell>
        <mxCell id="6-HiE4fvEg4OvYf6mzBh-13" value="" style="endArrow=none;html=1;rounded=0;" parent="1" source="6-HiE4fvEg4OvYf6mzBh-11" target="6-HiE4fvEg4OvYf6mzBh-8" edge="1">
          <mxGeometry width="50" height="50" relative="1" as="geometry">
            <mxPoint x="80" y="-840" as="sourcePoint" />
            <mxPoint x="450" y="-620" as="targetPoint" />
          </mxGeometry>
        </mxCell>
        <mxCell id="6-HiE4fvEg4OvYf6mzBh-14" value="Loan Officer" style="shape=umlActor;verticalLabelPosition=bottom;verticalAlign=top;html=1;outlineConnect=0;fillColor=#f8cecc;strokeColor=#b85450;" parent="1" vertex="1">
          <mxGeometry x="720" y="-790" width="50" height="80" as="geometry" />
        </mxCell>
        <mxCell id="6-HiE4fvEg4OvYf6mzBh-15" value="" style="endArrow=none;html=1;rounded=0;exitX=1;exitY=0.5;exitDx=0;exitDy=0;" parent="1" source="6-HiE4fvEg4OvYf6mzBh-8" target="6-HiE4fvEg4OvYf6mzBh-14" edge="1">
          <mxGeometry width="50" height="50" relative="1" as="geometry">
            <mxPoint x="400" y="-670" as="sourcePoint" />
            <mxPoint x="450" y="-720" as="targetPoint" />
          </mxGeometry>
        </mxCell>
        <mxCell id="6-HiE4fvEg4OvYf6mzBh-16" value="" style="endArrow=none;html=1;rounded=0;entryX=0;entryY=0.5;entryDx=0;entryDy=0;" parent="1" target="6-HiE4fvEg4OvYf6mzBh-9" edge="1">
          <mxGeometry width="50" height="50" relative="1" as="geometry">
            <mxPoint x="100" y="-510" as="sourcePoint" />
            <mxPoint x="450" y="-520" as="targetPoint" />
          </mxGeometry>
        </mxCell>
        <mxCell id="6-HiE4fvEg4OvYf6mzBh-17" value="Manager" style="shape=umlActor;verticalLabelPosition=bottom;verticalAlign=top;html=1;outlineConnect=0;fillColor=#f8cecc;strokeColor=#b85450;" parent="1" vertex="1">
          <mxGeometry x="40" y="-550" width="50" height="80" as="geometry" />
        </mxCell>
      </root>
    </mxGraphModel>
  </diagram>
  <diagram id="ljnk2Rgl84zAbL686LHR" name="Page-2">
    <mxGraphModel dx="1102" dy="614" grid="1" gridSize="10" guides="1" tooltips="1" connect="1" arrows="1" fold="1" page="1" pageScale="1" pageWidth="850" pageHeight="1100" math="0" shadow="0">
      <root>
        <mxCell id="0" />
        <mxCell id="1" parent="0" />
        <mxCell id="lsoXSZVuorVdbdThF3qp-8" value="" style="endArrow=none;html=1;rounded=0;" edge="1" parent="1">
          <mxGeometry width="50" height="50" relative="1" as="geometry">
            <mxPoint x="80" y="200" as="sourcePoint" />
            <mxPoint x="80" y="200" as="targetPoint" />
          </mxGeometry>
        </mxCell>
        <mxCell id="lsoXSZVuorVdbdThF3qp-26" style="edgeStyle=orthogonalEdgeStyle;rounded=0;orthogonalLoop=1;jettySize=auto;html=1;exitX=1;exitY=0.5;exitDx=0;exitDy=0;entryX=0;entryY=0.5;entryDx=0;entryDy=0;" edge="1" parent="1" source="lsoXSZVuorVdbdThF3qp-16" target="lsoXSZVuorVdbdThF3qp-17">
          <mxGeometry relative="1" as="geometry">
            <Array as="points">
              <mxPoint x="620" y="160" />
            </Array>
          </mxGeometry>
        </mxCell>
        <mxCell id="lsoXSZVuorVdbdThF3qp-16" value="&lt;table border=&quot;1&quot; width=&quot;100%&quot; cellpadding=&quot;4&quot; style=&quot;width: 100% ; height: 100% ; border-collapse: collapse&quot;&gt;&lt;tbody&gt;&lt;tr&gt;&lt;th align=&quot;center&quot;&gt;customer&lt;/th&gt;&lt;/tr&gt;&lt;tr&gt;&lt;td align=&quot;center&quot;&gt;Customer Name&lt;br&gt;AccNumber&lt;br&gt;Address&lt;br&gt;Phone&lt;/td&gt;&lt;/tr&gt;&lt;tr&gt;&lt;td align=&quot;center&quot;&gt;Section 2.1&lt;br&gt;Section 2.2&lt;br&gt;Section 2.3&lt;/td&gt;&lt;/tr&gt;&lt;/tbody&gt;&lt;/table&gt;" style="text;html=1;strokeColor=#d6b656;fillColor=#fff2cc;overflow=fill;" vertex="1" parent="1">
          <mxGeometry x="120" y="70" width="160" height="170" as="geometry" />
        </mxCell>
        <mxCell id="lsoXSZVuorVdbdThF3qp-17" value="&lt;table border=&quot;1&quot; width=&quot;100%&quot; cellpadding=&quot;4&quot; style=&quot;width: 100% ; height: 100% ; border-collapse: collapse&quot;&gt;&lt;tbody&gt;&lt;tr&gt;&lt;th align=&quot;center&quot;&gt;Bank&lt;/th&gt;&lt;/tr&gt;&lt;tr&gt;&lt;td align=&quot;center&quot;&gt;CustDetails&lt;br&gt;loanDetails&lt;br&gt;transNo&lt;br&gt;transDate&lt;br&gt;transTime&lt;/td&gt;&lt;/tr&gt;&lt;tr&gt;&lt;td align=&quot;center&quot;&gt;giveLoan()&lt;br&gt;UpdateDetails()&lt;br&gt;collectionMoney()&lt;br&gt;transaction()&lt;/td&gt;&lt;/tr&gt;&lt;/tbody&gt;&lt;/table&gt;" style="text;html=1;strokeColor=#d6b656;fillColor=#fff2cc;overflow=fill;" vertex="1" parent="1">
          <mxGeometry x="620" y="70" width="160" height="180" as="geometry" />
        </mxCell>
        <mxCell id="lsoXSZVuorVdbdThF3qp-18" value="&lt;table border=&quot;1&quot; width=&quot;100%&quot; cellpadding=&quot;4&quot; style=&quot;width: 100% ; height: 100% ; border-collapse: collapse&quot;&gt;&lt;tbody&gt;&lt;tr&gt;&lt;th align=&quot;center&quot;&gt;Account&lt;/th&gt;&lt;/tr&gt;&lt;tr&gt;&lt;td align=&quot;center&quot;&gt;accNo&lt;br&gt;custName&lt;br&gt;balance&lt;/td&gt;&lt;/tr&gt;&lt;tr&gt;&lt;td align=&quot;center&quot;&gt;UpdateAcc()&lt;br&gt;CheckAcc()&lt;/td&gt;&lt;/tr&gt;&lt;/tbody&gt;&lt;/table&gt;" style="text;html=1;strokeColor=#d6b656;fillColor=#fff2cc;overflow=fill;" vertex="1" parent="1">
          <mxGeometry x="370" y="370" width="160" height="160" as="geometry" />
        </mxCell>
        <mxCell id="lsoXSZVuorVdbdThF3qp-22" value="" style="endArrow=none;html=1;rounded=0;exitX=1;exitY=0.5;exitDx=0;exitDy=0;" edge="1" parent="1" source="lsoXSZVuorVdbdThF3qp-18">
          <mxGeometry width="50" height="50" relative="1" as="geometry">
            <mxPoint x="400" y="350" as="sourcePoint" />
            <mxPoint x="530" y="450" as="targetPoint" />
            <Array as="points">
              <mxPoint x="700" y="250" />
            </Array>
          </mxGeometry>
        </mxCell>
        <mxCell id="lsoXSZVuorVdbdThF3qp-23" value="" style="endArrow=none;dashed=1;html=1;dashPattern=1 3;strokeWidth=2;rounded=0;exitX=0;exitY=0.5;exitDx=0;exitDy=0;" edge="1" parent="1" source="lsoXSZVuorVdbdThF3qp-18">
          <mxGeometry width="50" height="50" relative="1" as="geometry">
            <mxPoint x="390" y="340" as="sourcePoint" />
            <mxPoint x="200" y="240" as="targetPoint" />
          </mxGeometry>
        </mxCell>
        <mxCell id="lsoXSZVuorVdbdThF3qp-27" value="*" style="text;html=1;align=center;verticalAlign=middle;resizable=0;points=[];autosize=1;strokeColor=#6c8ebf;fillColor=#dae8fc;" vertex="1" parent="1">
          <mxGeometry x="280" y="170" width="20" height="20" as="geometry" />
        </mxCell>
        <mxCell id="lsoXSZVuorVdbdThF3qp-28" value="1" style="text;html=1;align=center;verticalAlign=middle;resizable=0;points=[];autosize=1;strokeColor=#6c8ebf;fillColor=#dae8fc;" vertex="1" parent="1">
          <mxGeometry x="600" y="170" width="20" height="20" as="geometry" />
        </mxCell>
        <mxCell id="lsoXSZVuorVdbdThF3qp-29" value="1..*" style="text;html=1;align=center;verticalAlign=middle;resizable=0;points=[];autosize=1;strokeColor=#6c8ebf;fillColor=#dae8fc;" vertex="1" parent="1">
          <mxGeometry x="535" y="440" width="30" height="20" as="geometry" />
        </mxCell>
        <mxCell id="lsoXSZVuorVdbdThF3qp-30" value="1" style="text;html=1;align=center;verticalAlign=middle;resizable=0;points=[];autosize=1;strokeColor=#6c8ebf;fillColor=#dae8fc;" vertex="1" parent="1">
          <mxGeometry x="660" y="250" width="20" height="20" as="geometry" />
        </mxCell>
      </root>
    </mxGraphModel>
  </diagram>
</mxfile>
